<?xml version="1.0" encoding="UTF-8"?>
<svg version="1.1" xmlns="http://www.w3.org/2000/svg" width="527" height="240">
<path d="M0 0 C173.91 0 347.82 0 527 0 C527 79.2 527 158.4 527 240 C353.09 240 179.18 240 0 240 C0 160.8 0 81.6 0 0 Z " fill="#FEFEFE" transform="translate(0,0)"/>
<path d="M0 0 C0.495 0.495 0.99 0.99 1.5 1.5 C1.01282051 7.83333333 1.01282051 7.83333333 -1.375 10.9375 C-3.5 12.5 -3.5 12.5 -6.5 12.5 C-6.355625 11.79875 -6.21125 11.0975 -6.0625 10.375 C-5.48521625 7.42443859 -4.98304859 4.46729849 -4.5 1.5 C-12.33764475 2.05983177 -18.41452118 4.42876765 -24.5 9.5 C-24.11118624 14.81378806 -22.46291927 18.90763941 -18.5 22.5 C-13.0694596 23.67129303 -8.85370146 21.6321985 -3.92578125 19.5234375 C0.82504859 17.51906163 5.28057797 16.18367139 10.5 16.5 C10.86351562 15.41138672 10.86351562 15.41138672 11.234375 14.30078125 C12.66631214 11.13195739 14.32699587 9.17231546 16.75 6.6875 C17.87148438 5.50220703 17.87148438 5.50220703 19.015625 4.29296875 C21.5 2.5 21.5 2.5 24.546875 1.98828125 C27.5 2.5 27.5 2.5 29.859375 4.078125 C32.04091113 7.29848786 31.90412978 9.39675551 31.75 13.25 C31.71390625 14.42046875 31.6778125 15.5909375 31.640625 16.796875 C31.59421875 17.68890625 31.5478125 18.5809375 31.5 19.5 C40.55370885 19.70720114 40.55370885 19.70720114 49.5 18.5 C49.87125 17.076875 49.87125 17.076875 50.25 15.625 C51.5 12.5 51.5 12.5 53.625 11.125 C54.553125 10.815625 54.553125 10.815625 55.5 10.5 C57.15296348 15.36443537 55.51918801 18.8382353 53.5625 23.3125 C53.12647461 24.35180664 53.12647461 24.35180664 52.68164062 25.41210938 C51.96608352 27.11302381 51.23460121 28.80722331 50.5 30.5 C55.69814555 28.29159531 60.831198 25.97482979 65.94921875 23.5859375 C70.94772774 21.4579352 75.10067772 21.15718589 80.5 21.5 C82.5625 22.5 82.5625 22.5 83.5 24.5 C83.30979917 30.20602504 81.86367132 34.28022584 79.5 39.5 C78.80859478 42.27888613 78.80859478 42.27888613 78.5 44.5 C88.38868695 42.70205692 94.7841758 37.45574658 101.8125 30.5625 C102.31620117 30.07281738 102.81990234 29.58313477 103.33886719 29.07861328 C106.83895981 25.53292827 109.177489 21.90780592 111.5 17.5 C112.49 17.83 113.48 18.16 114.5 18.5 C106.95858514 30.43366748 96.64782263 43.20040704 82.5 47.5 C78.8125 47.3125 78.8125 47.3125 75.5 46.5 C73.15070708 42.97606062 73.09115472 41.64977958 73.5 37.5 C74.8125 34.578125 74.8125 34.578125 76.5 31.75 C78.7458369 28.33838182 78.7458369 28.33838182 79.5 24.5 C69.01499385 25.02425031 60.17273088 29.10275248 51.4375 34.77734375 C49.5 35.5 49.5 35.5 47.25 34.62890625 C46.6725 34.25636719 46.095 33.88382813 45.5 33.5 C45.32164485 28.95194365 45.50214565 25.6205746 47.5 21.5 C46.84 21.83 46.18 22.16 45.5 22.5 C43.08300957 22.33809633 40.66639437 22.17056901 38.25 22 C32.94358322 21.77858586 32.94358322 21.77858586 28.421875 24.2890625 C26.96532507 26.61356873 26.96532507 26.61356873 25.74609375 29.1015625 C23.80147439 32.84449757 21.07469855 35.30855437 17.5 37.5 C13.59144213 38.69244138 11.71735582 39.12428504 8.0625 37.25 C5.58988427 32.89819632 5.90331486 28.39143051 6.5 23.5 C7.5234375 20.65234375 7.5234375 20.65234375 8.5 18.5 C-5.06428959 22.06923214 -5.06428959 22.06923214 -16.5 29.5 C-18.00086855 32.57589766 -19.20213166 35.58065304 -20.31030273 38.80883789 C-22.62708338 45.43442048 -26.37705091 51.11424856 -32.5859375 54.70703125 C-35.12409203 55.75855241 -36.77702524 55.90844621 -39.5 55.5 C-42.6799418 53.35139067 -43.39098481 52.01534453 -44.1875 48.25 C-43.18880014 42.80254624 -40.68307796 40.03537557 -36.5 36.5 C-33.07786231 34.35121587 -29.65977563 32.36459236 -26.09765625 30.45703125 C-23.24782974 28.77450556 -23.24782974 28.77450556 -23.05859375 25.94921875 C-23.46231523 23.37480439 -23.46231523 23.37480439 -24.5 20.5 C-25.985 20.995 -25.985 20.995 -27.5 21.5 C-33.55580037 22.00465003 -37.58673832 21.33558872 -42.5 17.5 C-43.55900098 16.41244752 -44.60104128 15.30810788 -45.625 14.1875 C-46.57375 13.300625 -47.5225 12.41375 -48.5 11.5 C-59.96909574 12.0093184 -71.97764429 28.77908464 -79.5 36.5 C-80.82 35.84 -82.14 35.18 -83.5 34.5 C-82.98792856 30.74480943 -82.2824918 27.83311475 -80.5 24.5 C-81.17804688 24.95890625 -81.85609375 25.4178125 -82.5546875 25.890625 C-92.00626077 32.12185613 -100.80252043 37.37012996 -112.5 35.5 C-115.64641489 34.17973964 -117.93491855 32.6301629 -119.5 29.5 C-120.32148738 23.00890298 -119.36667167 17.81802742 -115.5 12.5 C-110.13200409 6.68952286 -104.7141465 2.84542184 -96.6875 2.1875 C-93.5 2.5 -93.5 2.5 -91.5 4.5 C-91.4375 7.8125 -91.4375 7.8125 -92.5 11.5 C-97.49237884 16.37891569 -103.02261798 17.74097595 -109.70703125 19.41015625 C-112.57508474 20.23740579 -112.57508474 20.23740579 -113.87890625 22.41796875 C-114.6975467 25.1622163 -114.62933474 27.65463572 -114.5 30.5 C-109.08876553 33.50088504 -104.16395989 33.23761065 -98.33984375 31.625 C-86.94414949 27.5731976 -80.33416454 23.06173704 -75.0625 12.1875 C-74.41366647 10.7767103 -73.76887414 9.36405218 -73.12890625 7.94921875 C-71.5 4.5 -71.5 4.5 -69.5 2.5 C-68.51 2.5 -67.52 2.5 -66.5 2.5 C-67.11303628 7.90508043 -68.94380693 12.42439045 -71.0625 17.375 C-71.39185547 18.15875 -71.72121094 18.9425 -72.06054688 19.75 C-72.86796786 21.66908756 -73.68319769 23.5848865 -74.5 25.5 C-73.91734375 25.02691406 -73.3346875 24.55382812 -72.734375 24.06640625 C-70.00161386 21.8621508 -67.2523776 19.67971126 -64.5 17.5 C-63.98163574 17.08347168 -63.46327148 16.66694336 -62.92919922 16.23779297 C-61.35803656 14.97941477 -59.77446692 13.73836021 -58.1875 12.5 C-57.22199219 11.736875 -56.25648438 10.97375 -55.26171875 10.1875 C-52.27775636 8.3642019 -50.9190273 7.9128943 -47.5 8.5 C-44.6875 10.875 -44.6875 10.875 -42.5 13.5 C-42.5 14.16 -42.5 14.82 -42.5 15.5 C-39.29989612 17.3133922 -36.36716157 18.02213974 -32.75 18.625 C-31.76515625 18.79257813 -30.7803125 18.96015625 -29.765625 19.1328125 C-29.01796875 19.25398438 -28.2703125 19.37515625 -27.5 19.5 C-27.850625 18.613125 -28.20125 17.72625 -28.5625 16.8125 C-29.55936692 13.2902369 -29.87834842 11.85972427 -28.5 8.5 C-21.84876314 1.84876314 -9.24319488 -5.54591693 0 0 Z " fill="#0F0F0F" transform="translate(388.5,92.5)"/>
<path d="M0 0 C2.75 0.4375 2.75 0.4375 4.75 2.4375 C6.06672096 11.09023775 1.5689058 19.25763719 -3.36962891 26.10620117 C-7.4936581 31.50625729 -12.09034824 36.338701 -16.94140625 41.08984375 C-17.45026367 41.58982376 -17.95912109 42.08980377 -18.48339844 42.60493469 C-21.05730806 45.12695829 -23.6494424 47.62482214 -26.27685547 50.09106445 C-32.15331765 55.69795477 -36.02089133 60.5589753 -38.25 68.4375 C-38.64445312 69.60539062 -39.03890625 70.77328125 -39.4453125 71.9765625 C-39.90550781 73.50410156 -39.90550781 73.50410156 -40.375 75.0625 C-40.84292969 76.59777344 -40.84292969 76.59777344 -41.3203125 78.1640625 C-41.78050781 79.78441406 -41.78050781 79.78441406 -42.25 81.4375 C-42.61480469 82.63632813 -42.97960937 83.83515625 -43.35546875 85.0703125 C-44.70301 90.55354698 -44.50236674 96.07481973 -44.4375 101.6875 C-44.43685547 102.76257813 -44.43621094 103.83765625 -44.43554688 104.9453125 C-44.44435758 111.26608929 -44.44435758 111.26608929 -43.25 117.4375 C-45.1875 117.125 -45.1875 117.125 -47.25 116.4375 C-52.47169701 100.77240898 -46.53404442 80.40072858 -41.25 65.4375 C-45.36940821 68.12061603 -49.25230627 70.96450664 -53.125 74 C-58.73078324 78.21127528 -63.29985213 81.58656218 -70.5625 81.3125 C-73.31362183 80.41678592 -74.57060752 79.76998956 -76.25 77.4375 C-76.25 76.7775 -76.25 76.1175 -76.25 75.4375 C-76.8790625 75.95699219 -77.508125 76.47648437 -78.15625 77.01171875 C-93.58437991 89.581927 -93.58437991 89.581927 -102.25 89.4375 C-104.75 87.875 -104.75 87.875 -106.25 85.4375 C-106.73935292 80.57795369 -105.72693815 77.83866487 -103.25 73.6875 C-101.0041631 70.27588182 -101.0041631 70.27588182 -100.25 66.4375 C-110.73500615 66.96175031 -119.57726912 71.04025248 -128.3125 76.71484375 C-130.25 77.4375 -130.25 77.4375 -132.5 76.56640625 C-133.0775 76.19386719 -133.655 75.82132812 -134.25 75.4375 C-135.12292918 67.75572319 -131.98651232 60.31475984 -127.58203125 54.07421875 C-127.14246094 53.53410156 -126.70289063 52.99398437 -126.25 52.4375 C-125.26 52.7675 -124.27 53.0975 -123.25 53.4375 C-123.85875755 58.04166626 -125.09722956 62.00233324 -126.8125 66.3125 C-127.26753906 67.46492188 -127.72257813 68.61734375 -128.19140625 69.8046875 C-128.54074219 70.67351562 -128.89007813 71.54234375 -129.25 72.4375 C-124.04736914 70.24083364 -118.91826885 67.91208093 -113.80078125 65.5234375 C-108.80227226 63.3954352 -104.64932228 63.09468589 -99.25 63.4375 C-97.1875 64.4375 -97.1875 64.4375 -96.25 66.4375 C-96.44020083 72.14352504 -97.88632868 76.21772584 -100.25 81.4375 C-100.94140522 84.21638613 -100.94140522 84.21638613 -101.25 86.4375 C-90.97673581 84.56963378 -82.70100142 78.60080426 -76.25 70.4375 C-75.03429375 68.2979641 -73.86971586 66.12879914 -72.75 63.9375 C-68.16835239 54.98151915 -61.8348702 48.07371824 -52.25 44.4375 C-48.07722717 43.58943646 -45.11746591 43.92833522 -41.375 46.125 C-39.1897329 48.50308478 -38.18765111 50.36882365 -37.25 53.4375 C-36.59 53.4375 -35.93 53.4375 -35.25 53.4375 C-34.98517822 52.57576172 -34.72035645 51.71402344 -34.44750977 50.82617188 C-33.24410334 47.42081383 -31.7868798 44.4045639 -30.08984375 41.21875 C-29.63097778 40.35510582 -29.63097778 40.35510582 -29.1628418 39.47401428 C-28.17718742 37.6251493 -27.18342055 35.78085318 -26.1875 33.9375 C-25.84985626 33.31044159 -25.51221252 32.68338318 -25.16433716 32.037323 C-8.5015316 1.14443695 -8.5015316 1.14443695 0 0 Z " fill="#0E0E0E" transform="translate(284.25,50.5625)"/>
<path d="M0 0 C2.77032111 2.77032111 2.78178999 4.80589781 3.09765625 8.640625 C2.75306725 20.49448676 -1.27930945 32.613192 -4.44192505 43.97183228 C-4.98489467 45.94510389 -5.5103306 47.92223751 -6.03149414 49.90136719 C-9.26648714 62.04697473 -13.29237409 73.84900686 -17.5 85.6875 C-18.80417982 89.37816788 -20.10523847 93.06993302 -21.40625 96.76171875 C-21.71643066 97.63996307 -22.02661133 98.5182074 -22.34619141 99.42306519 C-24.98795972 106.91943501 -27.52394817 114.44731367 -30 122 C-31.32 122 -32.64 122 -34 122 C-31.57505309 110.73112905 -28.4454845 99.92158008 -24.6875 89.02929688 C-23.73041047 86.20425136 -22.86099287 83.35562637 -22 80.5 C-20.43566656 75.34613796 -18.76958346 70.23284676 -17.0625 65.125 C-16.8046875 64.350354 -16.546875 63.57570801 -16.28125 62.77758789 C-15.12184202 59.30482598 -13.94417432 55.84338267 -12.71484375 52.39453125 C-9.92179828 44.4464758 -7.75065333 36.43072906 -5.75 28.25 C-5.36231445 26.6875354 -5.36231445 26.6875354 -4.96679688 25.09350586 C-3.37484496 18.40359327 -2.42408404 11.86337606 -2 5 C-10.50774517 6.66897813 -17.21651425 18.07320635 -22.1484375 24.8515625 C-22.61608017 25.49204529 -23.08372284 26.13252808 -23.5655365 26.79241943 C-29.12018422 34.46193209 -34.34301069 42.35056651 -39.5625 50.25 C-40.55500632 51.74631416 -41.54784371 53.24240879 -42.54101562 54.73828125 C-44.33870064 57.44690389 -46.13461898 60.15667565 -47.92797852 62.86816406 C-49.28179665 64.91444413 -50.63899521 66.95849281 -52 69 C-50.700625 68.938125 -49.40125 68.87625 -48.0625 68.8125 C-40.25207268 68.77868863 -32.63539481 70.51189521 -25 72 C-25 72.99 -25 73.98 -25 75 C-25.62003906 74.855625 -26.24007812 74.71125 -26.87890625 74.5625 C-35.41568312 72.77313192 -45.90345478 70.68162238 -54.07421875 74.3984375 C-58.16512101 78.0360088 -60.38562346 82.23595174 -63 87 C-64.10884363 88.91512523 -65.21957408 90.82915904 -66.33203125 92.7421875 C-73.30429424 104.97238503 -79.73226473 117.22837943 -85.16894531 130.22021484 C-86 132 -86 132 -88 135 C-89.32 135 -90.64 135 -92 135 C-91.67901027 126.2918593 -87.48506565 119.98387103 -83.21679688 112.57617188 C-79.8504094 106.47787812 -78.02495727 101.98282692 -79 95 C-79.11214844 94.15308594 -79.22429687 93.30617188 -79.33984375 92.43359375 C-81.33631334 85.76564629 -85.50425907 82.08791356 -91 78 C-91.66 77.67 -92.32 77.34 -93 77 C-92.67 75.68 -92.34 74.36 -92 73 C-81.61424117 70.59640673 -71.80733278 68.55453733 -61.1015625 68.56640625 C-56.365293 67.70147038 -54.4883441 65.04311135 -51.72998047 61.2565918 C-50.32284124 59.21532619 -48.97028896 57.14502475 -47.625 55.0625 C-46.5673819 53.45378524 -45.50874004 51.84574319 -44.44921875 50.23828125 C-43.89153809 49.38959473 -43.33385742 48.5409082 -42.75927734 47.66650391 C-34.00023176 34.39058164 -25.14261544 21.26471126 -15 9 C-14.31035156 8.15695313 -13.62070313 7.31390625 -12.91015625 6.4453125 C-5.60020634 -2.24008253 -5.60020634 -2.24008253 0 0 Z " fill="#111111" transform="translate(158,37)"/>
<path d="M0 0 C2.953125 0.51171875 2.953125 0.51171875 5.3125 2.08984375 C7.49403613 5.31020661 7.35725478 7.40847426 7.203125 11.26171875 C7.16703125 12.4321875 7.1309375 13.60265625 7.09375 14.80859375 C7.04734375 15.700625 7.0009375 16.59265625 6.953125 17.51171875 C16.00683385 17.71891989 16.00683385 17.71891989 24.953125 16.51171875 C25.200625 15.56296875 25.448125 14.61421875 25.703125 13.63671875 C26.953125 10.51171875 26.953125 10.51171875 29.078125 9.13671875 C29.696875 8.93046875 30.315625 8.72421875 30.953125 8.51171875 C32.60608848 13.37615412 30.97231301 16.84995405 29.015625 21.32421875 C28.72494141 22.01708984 28.43425781 22.70996094 28.13476562 23.42382812 C27.41920852 25.12474256 26.68772621 26.81894206 25.953125 28.51171875 C31.15127055 26.30331406 36.284323 23.98654854 41.40234375 21.59765625 C46.40085274 19.46965395 50.55380272 19.16890464 55.953125 19.51171875 C58.015625 20.51171875 58.015625 20.51171875 58.953125 22.51171875 C58.76292417 28.21774379 57.31679632 32.29194459 54.953125 37.51171875 C54.26171978 40.29060488 54.26171978 40.29060488 53.953125 42.51171875 C63.84181195 40.71377567 70.2373008 35.46746533 77.265625 28.57421875 C77.76932617 28.08453613 78.27302734 27.59485352 78.79199219 27.09033203 C82.29208481 23.54464702 84.630614 19.91952467 86.953125 15.51171875 C87.943125 15.84171875 88.933125 16.17171875 89.953125 16.51171875 C82.41171014 28.44538623 72.10094763 41.21212579 57.953125 45.51171875 C54.265625 45.32421875 54.265625 45.32421875 50.953125 44.51171875 C48.60383208 40.98777937 48.54427972 39.66149833 48.953125 35.51171875 C50.265625 32.58984375 50.265625 32.58984375 51.953125 29.76171875 C54.1989619 26.35010057 54.1989619 26.35010057 54.953125 22.51171875 C44.46811885 23.03596906 35.62585588 27.11447123 26.890625 32.7890625 C24.953125 33.51171875 24.953125 33.51171875 22.703125 32.640625 C22.125625 32.26808594 21.548125 31.89554688 20.953125 31.51171875 C20.77476985 26.9636624 20.95527065 23.63229335 22.953125 19.51171875 C21.963125 20.00671875 21.963125 20.00671875 20.953125 20.51171875 C18.53613457 20.34981508 16.11951937 20.18228776 13.703125 20.01171875 C8.39670822 19.79030461 8.39670822 19.79030461 3.875 22.30078125 C2.41845007 24.62528748 2.41845007 24.62528748 1.19921875 27.11328125 C-0.74540061 30.85621632 -3.47217645 33.32027312 -7.046875 35.51171875 C-10.95543287 36.70416013 -12.82951918 37.13600379 -16.484375 35.26171875 C-18.95699073 30.90991507 -18.64356014 26.40314926 -18.046875 21.51171875 C-17.0234375 18.6640625 -17.0234375 18.6640625 -16.046875 16.51171875 C-17.09488281 16.86105469 -18.14289063 17.21039063 -19.22265625 17.5703125 C-24.1640625 19.21744792 -29.10546875 20.86458333 -34.046875 22.51171875 C-34.046875 21.52171875 -34.046875 20.53171875 -34.046875 19.51171875 C-31.65399796 18.66894445 -29.25816481 17.83734873 -26.859375 17.01171875 C-26.18583984 16.77324219 -25.51230469 16.53476563 -24.81835938 16.2890625 C-21.11483033 15.02444283 -17.96746964 14.20720654 -14.046875 14.51171875 C-13.80453125 13.78597656 -13.5621875 13.06023437 -13.3125 12.3125 C-11.88056286 9.14367614 -10.21987913 7.18403421 -7.796875 4.69921875 C-7.04921875 3.90902344 -6.3015625 3.11882812 -5.53125 2.3046875 C-3.046875 0.51171875 -3.046875 0.51171875 0 0 Z " fill="#0C0C0C" transform="translate(413.046875,94.48828125)"/>
<path d="M0 0 C2 2 2 2 2.0625 5.3125 C0.93005421 9.24275304 -0.19480122 10.69399097 -3.62109375 12.8828125 C-7.64651074 14.77323821 -11.90241053 15.83523945 -16.20703125 16.91015625 C-19.07508474 17.73740579 -19.07508474 17.73740579 -20.37890625 19.91796875 C-21.1975467 22.6622163 -21.12933474 25.15463572 -21 28 C-15.58876553 31.00088504 -10.66395989 30.73761065 -4.83984375 29.125 C6.55585051 25.0731976 13.16583546 20.56173704 18.4375 9.6875 C19.08633353 8.2767103 19.73112586 6.86405218 20.37109375 5.44921875 C22 2 22 2 24 0 C24.99 0 25.98 0 27 0 C26.38696372 5.40508043 24.55619307 9.92439045 22.4375 14.875 C22.10814453 15.65875 21.77878906 16.4425 21.43945312 17.25 C20.63203214 19.16908756 19.81680231 21.0848865 19 23 C19.61488281 22.48308594 20.22976563 21.96617188 20.86328125 21.43359375 C21.67152344 20.77488281 22.47976563 20.11617187 23.3125 19.4375 C24.51326172 18.44556641 24.51326172 18.44556641 25.73828125 17.43359375 C26.85783203 16.72396484 26.85783203 16.72396484 28 16 C28.99 16.33 29.98 16.66 31 17 C25.39 22.61 19.78 28.22 14 34 C12.68 33.34 11.36 32.68 10 32 C10.51207144 28.24480943 11.2175082 25.33311475 13 22 C12.32195312 22.45890625 11.64390625 22.9178125 10.9453125 23.390625 C1.49373923 29.62185613 -7.30252043 34.87012996 -19 33 C-22.14641489 31.67973964 -24.43491855 30.1301629 -26 27 C-26.82148738 20.50890298 -25.86667167 15.31802742 -22 10 C-15.83723236 3.3292385 -9.39939557 -0.92150937 0 0 Z " fill="#0E0E0E" transform="translate(295,95)"/>
<path d="M0 0 C2.40795157 2.3428718 3.79022279 3.98722314 4.4765625 7.30078125 C3.75795891 11.37090489 1.05626041 13.34579419 -1.9375 15.9375 C-2.53143555 16.46384033 -3.12537109 16.99018066 -3.73730469 17.5324707 C-16.21694503 28.43106413 -16.21694503 28.43106413 -25.15234375 29.1875 C-27 29 -27 29 -29 27 C-28.6560962 18.05850125 -22.90899881 11.64419567 -16.578125 5.7421875 C-6.36567327 -2.44833587 -6.36567327 -2.44833587 0 0 Z " fill="#F8F8F8" transform="translate(240,101)"/>
<path d="M0 0 C0.99 0.33 1.98 0.66 3 1 C2.39124245 5.60416626 1.15277044 9.56483324 -0.5625 13.875 C-1.01753906 15.02742188 -1.47257812 16.17984375 -1.94140625 17.3671875 C-2.29074219 18.23601562 -2.64007813 19.10484375 -3 20 C2.20263086 17.80333364 7.33173115 15.47458093 12.44921875 13.0859375 C17.44772774 10.9579352 21.60067772 10.65718589 27 11 C29.0625 12 29.0625 12 30 14 C29.80979917 19.70602504 28.36367132 23.78022584 26 29 C25.30859478 31.77888613 25.30859478 31.77888613 25 34 C34.88868695 32.20205692 41.2841758 26.95574658 48.3125 20.0625 C48.81620117 19.57281738 49.31990234 19.08313477 49.83886719 18.57861328 C53.33895981 15.03292827 55.677489 11.40780592 58 7 C58.99 7.33 59.98 7.66 61 8 C53.45858514 19.93366748 43.14782263 32.70040704 29 37 C25.3125 36.8125 25.3125 36.8125 22 36 C19.65070708 32.47606062 19.59115472 31.14977958 20 27 C21.3125 24.078125 21.3125 24.078125 23 21.25 C25.2458369 17.83838182 25.2458369 17.83838182 26 14 C15.51499385 14.52425031 6.67273088 18.60275248 -2.0625 24.27734375 C-4 25 -4 25 -6.25 24.12890625 C-6.8275 23.75636719 -7.405 23.38382813 -8 23 C-8.17835515 18.45194365 -7.99785435 15.1205746 -6 11 C-6.99 11.33 -7.98 11.66 -9 12 C-9.33 11.01 -9.66 10.02 -10 9 C-8.02 8.67 -6.04 8.34 -4 8 C-3.71125 7.05125 -3.4225 6.1025 -3.125 5.125 C-2 2 -2 2 0 0 Z " fill="#121212" transform="translate(442,103)"/>
<path d="M0 0 C0.99 0.33 1.98 0.66 3 1 C2.39124245 5.60416626 1.15277044 9.56483324 -0.5625 13.875 C-1.01753906 15.02742188 -1.47257813 16.17984375 -1.94140625 17.3671875 C-2.29074219 18.23601562 -2.64007813 19.10484375 -3 20 C2.20263086 17.80333364 7.33173115 15.47458093 12.44921875 13.0859375 C17.44772774 10.9579352 21.60067772 10.65718589 27 11 C29.0625 12 29.0625 12 30 14 C29.80979917 19.70602504 28.36367132 23.78022584 26 29 C25.30859478 31.77888613 25.30859478 31.77888613 25 34 C31.12995014 32.88546361 35.04791586 30.90184058 40.01953125 27.14453125 C40.99986328 26.57798828 40.99986328 26.57798828 42 26 C42.99 26.33 43.98 26.66 45 27 C43.2758698 28.29838176 41.54546768 29.58843747 39.8125 30.875 C38.84957031 31.59429687 37.88664062 32.31359375 36.89453125 33.0546875 C32.80951551 35.80008269 30.26241439 37.06419056 25.3125 36.8125 C22 36 22 36 20 33 C19.46374199 28.14686502 20.52779685 25.39322935 23 21.25 C25.2458369 17.83838182 25.2458369 17.83838182 26 14 C15.51499385 14.52425031 6.67273088 18.60275248 -2.0625 24.27734375 C-4 25 -4 25 -6.25 24.12890625 C-6.8275 23.75636719 -7.405 23.38382813 -8 23 C-8.87292918 15.31822319 -5.73651232 7.87725984 -1.33203125 1.63671875 C-0.89246094 1.09660156 -0.45289063 0.55648437 0 0 Z " fill="#121212" transform="translate(158,103)"/>
<path d="M0 0 C2.475 0.495 2.475 0.495 5 1 C4.21472068 18.66878459 -13.26390963 32.56189629 -25 44 C-25.33 43.34 -25.66 42.68 -26 42 C-24.91231133 39.46810248 -23.76662583 37.0660721 -22.5 34.625 C-22.12979736 33.90328613 -21.75959473 33.18157227 -21.37817383 32.43798828 C-20.26456738 30.28519072 -19.13557307 28.14127872 -18 26 C-17.43667969 24.93265625 -16.87335938 23.8653125 -16.29296875 22.765625 C-11.70421934 14.50364309 -5.96521621 7.29201837 0 0 Z " fill="#F3F3F3" transform="translate(282,54)"/>
<path d="M0 0 C-2.84779741 5.93853488 -6.04425564 11.47569653 -9.625 17 C-10.11484375 17.77472656 -10.6046875 18.54945312 -11.109375 19.34765625 C-11.58117187 20.07855469 -12.05296875 20.80945313 -12.5390625 21.5625 C-12.96396973 22.22378906 -13.38887695 22.88507813 -13.82666016 23.56640625 C-14.2138623 24.03949219 -14.60106445 24.51257813 -15 25 C-15.66 25 -16.32 25 -17 25 C-17.11214844 24.39414063 -17.22429687 23.78828125 -17.33984375 23.1640625 C-18.99336846 16.13928434 -22.08563468 12.12261385 -27.13671875 7.03125 C-29 5 -29 5 -29 3 C-19.08139933 0.66621161 -10.21838503 -0.42511001 0 0 Z " fill="#F6F6F6" transform="translate(99,109)"/>
<path d="M0 0 C0.99 0 1.98 0 3 0 C2.38696372 5.40508043 0.55619307 9.92439045 -1.5625 14.875 C-2.0565332 16.050625 -2.0565332 16.050625 -2.56054688 17.25 C-3.36796786 19.16908756 -4.18319769 21.0848865 -5 23 C-4.38511719 22.48308594 -3.77023437 21.96617188 -3.13671875 21.43359375 C-2.32847656 20.77488281 -1.52023437 20.11617187 -0.6875 19.4375 C0.11300781 18.77621094 0.91351563 18.11492187 1.73828125 17.43359375 C2.85783203 16.72396484 2.85783203 16.72396484 4 16 C4.99 16.33 5.98 16.66 7 17 C1.39 22.61 -4.22 28.22 -10 34 C-11.32 33.34 -12.64 32.68 -14 32 C-13.48636193 28.23332085 -12.73730949 25.35879836 -11 22 C-11 21.01 -11 20.02 -11 19 C-10.20556641 17.13061523 -10.20556641 17.13061523 -9.1015625 15.05859375 C-8.70453125 14.31029297 -8.3075 13.56199219 -7.8984375 12.79101562 C-7.47820312 12.01435547 -7.05796875 11.23769531 -6.625 10.4375 C-6.2125 9.65697266 -5.8 8.87644531 -5.375 8.07226562 C-2.2723939 2.2723939 -2.2723939 2.2723939 0 0 Z " fill="#0F0F0F" transform="translate(319,95)"/>
<path d="M0 0 C3.28288776 0.11320303 4.30354487 1.28284863 6.75 3.5625 C7.86375 4.7690625 7.86375 4.7690625 9 6 C6.88836579 13.39071975 3.35063436 18.72304216 -3 23 C-5.875 22.8125 -5.875 22.8125 -8 22 C-8.90330185 14.17138397 -5.95614955 8.66190986 -2 2 C-1.34 1.34 -0.68 0.68 0 0 Z " fill="#F6F6F6" transform="translate(406,105)"/>
<path d="M0 0 C1.37807166 4.13421499 0.03919187 5.96158131 -1.75390625 9.77734375 C-4.06298104 13.89603829 -7.12494678 16.41663119 -11 19 C-13.6875 18.625 -13.6875 18.625 -16 18 C-16.37658683 14.71500412 -16.28446163 13.38250736 -14.27734375 10.68359375 C-9.76485574 6.3519066 -5.63290464 2.7565278 0 0 Z " fill="#F6F6F6" transform="translate(365,126)"/>
<path d="M0 0 C0.99 0.33 1.98 0.66 3 1 C2.39124245 5.60416626 1.15277044 9.56483324 -0.5625 13.875 C-1.01753906 15.02742188 -1.47257812 16.17984375 -1.94140625 17.3671875 C-2.29074219 18.23601562 -2.64007813 19.10484375 -3 20 C-1.68 20 -0.36 20 1 20 C0.67 20.99 0.34 21.98 0 23 C-3.0625 24.1875 -3.0625 24.1875 -6 25 C-8 23 -8 23 -8.25 19.6875 C-8.01863452 16.27485916 -7.4765288 14.04534065 -6 11 C-6.99 11.33 -7.98 11.66 -9 12 C-9.33 11.01 -9.66 10.02 -10 9 C-8.02 8.67 -6.04 8.34 -4 8 C-3.71125 7.05125 -3.4225 6.1025 -3.125 5.125 C-2 2 -2 2 0 0 Z " fill="#0D0D0D" transform="translate(442,103)"/>
<path d="M0 0 C0.99 0.33 1.98 0.66 3 1 C1.98486532 5.76332428 0.88010135 10.39463774 -0.55859375 15.046875 C-2.25694671 21.23362082 -2.37722358 27.05644232 -2.25 33.4375 C-2.24484375 34.49904297 -2.2396875 35.56058594 -2.234375 36.65429688 C-2.19726463 42.90086093 -2.19726463 42.90086093 -1 49 C-2.9375 48.6875 -2.9375 48.6875 -5 48 C-9.91716422 33.24850733 -4.73876496 14.21629487 0 0 Z " fill="#363636" transform="translate(242,119)"/>
<path d="M0 0 C0.99 0.33 1.98 0.66 3 1 C2.39124245 5.60416626 1.15277044 9.56483324 -0.5625 13.875 C-1.01753906 15.02742188 -1.47257813 16.17984375 -1.94140625 17.3671875 C-2.29074219 18.23601562 -2.64007813 19.10484375 -3 20 C-1.68 20 -0.36 20 1 20 C0.67 20.99 0.34 21.98 0 23 C-3.0625 24.1875 -3.0625 24.1875 -6 25 C-8 23 -8 23 -8.4375 20.125 C-8.25770201 13.00799642 -4.42165129 5.4330554 0 0 Z " fill="#0E0E0E" transform="translate(158,103)"/>
<path d="M0 0 C2.8125 2.375 2.8125 2.375 5 5 C5 5.66 5 6.32 5 7 C8.20010388 8.8133922 11.13283843 9.52213974 14.75 10.125 C15.73484375 10.29257813 16.7196875 10.46015625 17.734375 10.6328125 C18.85585938 10.81457031 18.85585938 10.81457031 20 11 C20.33 10.34 20.66 9.68 21 9 C21.495 10.485 21.495 10.485 22 12 C18.77375438 13.61312281 15.49823847 13.4507712 12 13 C7.69798863 11.07151215 5.02945991 9.1397023 1.875 5.6875 C-0.63844928 2.79686313 -0.63844928 2.79686313 -3.375 2.75 C-6.69422076 4.33058131 -9.33041441 6.45408532 -12.1328125 8.8203125 C-12.74898438 9.20960937 -13.36515625 9.59890625 -14 10 C-14.99 9.67 -15.98 9.34 -17 9 C-15.11483137 7.48464914 -13.21878196 5.9883749 -11.3125 4.5 C-10.78205078 4.07074219 -10.25160156 3.64148438 -9.70507812 3.19921875 C-6.40287962 0.64659905 -4.20196206 -0.79146546 0 0 Z " fill="#1B1B1B" transform="translate(341,101)"/>
<path d="M0 0 C0.99 0.33 1.98 0.66 3 1 C-4.17316517 12.35094268 -13.70250816 24.56750272 -27 29 C-27 28.01 -27 27.02 -27 26 C-25.26953125 24.8515625 -25.26953125 24.8515625 -22.8125 23.625 C-17.90850864 20.83371248 -14.09054485 17.52071691 -10.125 13.5625 C-9.5781958 13.02512207 -9.0313916 12.48774414 -8.46801758 11.93408203 C-4.86455611 8.25680871 -2.38746192 4.56155163 0 0 Z " fill="#313131" transform="translate(500,110)"/>
<path d="M0 0 C0.495 0.495 0.99 0.99 1.5 1.5 C1.01282051 7.83333333 1.01282051 7.83333333 -1.375 10.9375 C-3.5 12.5 -3.5 12.5 -6.5 12.5 C-6.355625 11.79875 -6.21125 11.0975 -6.0625 10.375 C-5.48521625 7.42443859 -4.98304859 4.46729849 -4.5 1.5 C-8.955 1.995 -8.955 1.995 -13.5 2.5 C-13.83 1.51 -14.16 0.52 -14.5 -0.5 C-9.7339657 -2.0886781 -4.36746631 -2.62047979 0 0 Z " fill="#161616" transform="translate(388.5,92.5)"/>
<path d="M0 0 C0 0.33 0 0.66 0 1 C-4.455 1.495 -4.455 1.495 -9 2 C-8.54109375 2.50789063 -8.0821875 3.01578125 -7.609375 3.5390625 C-0.11453744 11.94713656 -0.11453744 11.94713656 2 16 C1.75 19.375 1.75 19.375 1 22 C0.67 22 0.34 22 0 22 C-0.16822266 21.1646875 -0.16822266 21.1646875 -0.33984375 20.3125 C-2.20695698 13.08811416 -6.10365321 9.38589742 -12 5 C-12.66 4.67 -13.32 4.34 -14 4 C-13.67 2.68 -13.34 1.36 -13 0 C-11.58800422 -0.39222105 -10.17007236 -0.76311059 -8.75 -1.125 C-7.96109375 -1.33382812 -7.1721875 -1.54265625 -6.359375 -1.7578125 C-3.5796929 -2.04314411 -2.34112451 -1.44977894 0 0 Z " fill="#181818" transform="translate(79,110)"/>
<path d="M0 0 C0.33 0 0.66 0 1 0 C2.08440284 9.54274504 -2.99133814 18.25334693 -8.5703125 25.671875 C-10 27 -10 27 -13 27 C-11.54143082 23.93927192 -9.85792794 21.04135025 -8.13085938 18.12548828 C-4.64445459 12.20911673 -1.83866166 6.66514853 0 0 Z " fill="#181818" transform="translate(288,53)"/>
<path d="M0 0 C0.66 0.66 1.32 1.32 2 2 C-0.01658183 3.58900583 -2.03796886 5.17117615 -4.0625 6.75 C-4.90458008 7.41515625 -4.90458008 7.41515625 -5.76367188 8.09375 C-12.15483818 13.06059925 -17.72100972 16.72403366 -26 17 C-26.99 16.34 -27.98 15.68 -29 15 C-29 14.34 -29 13.68 -29 13 C-28.45472656 13.13019531 -27.90945312 13.26039063 -27.34765625 13.39453125 C-21.65164736 14.43636535 -18.31361182 13.80478756 -13.41796875 10.74609375 C-8.76292487 7.38453541 -4.35620838 3.73738252 0 0 Z " fill="#282828" transform="translate(239,115)"/>
<path d="M0 0 C0.33 0.66 0.66 1.32 1 2 C1.66 2 2.32 2 3 2 C1.70119125 8.33169265 -2.40732112 12.68015353 -7 17 C-7.99 17.33 -8.98 17.66 -10 18 C-8.97821008 14.74885025 -8.06735423 13.06390017 -5.5625 10.6875 C-2.31837683 7.28512692 -1.43123191 4.44435171 0 0 Z " fill="#232323" transform="translate(365,129)"/>
<path d="M0 0 C-1.50042856 3.00085712 -3.74296705 3.28257944 -6.8125 4.5 C-10.28231596 5.88623585 -13.68755608 7.26758381 -17 9 C-17 8.01 -17 7.02 -17 6 C-14.73495035 4.80015203 -12.46410112 3.61505231 -10.1875 2.4375 C-9.54490234 2.09525391 -8.90230469 1.75300781 -8.24023438 1.40039062 C-3.33984375 -1.11328125 -3.33984375 -1.11328125 0 0 Z " fill="#1A1A1A" transform="translate(460,116)"/>
<path d="M0 0 C-1.50042856 3.00085712 -3.74296705 3.28257944 -6.8125 4.5 C-10.28231596 5.88623585 -13.68755608 7.26758381 -17 9 C-17 8.01 -17 7.02 -17 6 C-14.73495035 4.80015203 -12.46410112 3.61505231 -10.1875 2.4375 C-9.54490234 2.09525391 -8.90230469 1.75300781 -8.24023438 1.40039062 C-3.33984375 -1.11328125 -3.33984375 -1.11328125 0 0 Z " fill="#1A1A1A" transform="translate(176,116)"/>
<path d="M0 0 C0.66 0 1.32 0 2 0 C2 0.66 2 1.32 2 2 C5.20010388 3.8133922 8.13283843 4.52213974 11.75 5.125 C12.73484375 5.29257813 13.7196875 5.46015625 14.734375 5.6328125 C15.85585938 5.81457031 15.85585938 5.81457031 17 6 C17.33 5.34 17.66 4.68 18 4 C18.33 4.99 18.66 5.98 19 7 C15.77644289 8.61177856 12.49532871 8.45974594 9 8 C5.43296571 6.66322793 2.65618114 5.02706613 0.5625 1.75 C0.376875 1.1725 0.19125 0.595 0 0 Z " fill="#2E2E2E" transform="translate(344,106)"/>
<path d="M0 0 C1 3 1 3 0.00390625 5.48046875 C-0.47175781 6.37378906 -0.94742187 7.26710938 -1.4375 8.1875 C-1.91058594 9.08855469 -2.38367188 9.98960938 -2.87109375 10.91796875 C-3.24363281 11.60503906 -3.61617188 12.29210937 -4 13 C-4.99 12.67 -5.98 12.34 -7 12 C-5.77759242 7.95665186 -4.39561694 4.49360803 -2 1 C-1.34 0.67 -0.68 0.34 0 0 Z " fill="#1B1B1B" transform="translate(264,77)"/>
<path d="M0 0 C0.33 0 0.66 0 1 0 C1.13277344 0.67546875 1.26554688 1.3509375 1.40234375 2.046875 C1.57894531 2.93890625 1.75554687 3.8309375 1.9375 4.75 C2.11152344 5.63171875 2.28554687 6.5134375 2.46484375 7.421875 C2.92368488 9.63235053 3.43336074 11.81512068 4 14 C2.0625 13.6875 2.0625 13.6875 0 13 C-0.94738023 10.15785932 -1.13460559 8.32391609 -1.125 5.375 C-1.12757813 4.57835937 -1.13015625 3.78171875 -1.1328125 2.9609375 C-1 1 -1 1 0 0 Z " fill="#0C0C0C" transform="translate(237,154)"/>
<path d="M0 0 C4.79559548 2.04779241 7.56409585 5.44848359 10 10 C9.875 13.5 9.875 13.5 9 16 C8.67 16 8.34 16 8 16 C7.84144531 15.40832031 7.68289062 14.81664062 7.51953125 14.20703125 C5.93291094 8.83356026 4.27375437 5.81172687 0 2 C0 1.34 0 0.68 0 0 Z " fill="#242424" transform="translate(71,116)"/>
<path d="M0 0 C-1.38530129 3.42717768 -2.67477227 4.7293493 -6 6.3125 C-6.70125 6.65925781 -7.4025 7.00601563 -8.125 7.36328125 C-9.053125 7.67845703 -9.053125 7.67845703 -10 8 C-10.66 7.67 -11.32 7.34 -12 7 C-3.89473684 0 -3.89473684 0 0 0 Z " fill="#DFDFDF" transform="translate(294,99)"/>
<path d="M0 0 C2.475 0.495 2.475 0.495 5 1 C5 3.31 5 5.62 5 8 C1.125 6.125 1.125 6.125 0 5 C-0.04063832 3.33382885 -0.042721 1.66611905 0 0 Z " fill="#E1E1E1" transform="translate(411,101)"/>
<path d="M0 0 C0.33 0 0.66 0 1 0 C1.36263859 5.8022175 0.25684543 9.63999211 -2 15 C-2.99 15 -3.98 15 -5 15 C-3.33333333 10 -1.66666667 5 0 0 Z " fill="#282828" transform="translate(288,53)"/>
<path d="M0 0 C0.66 0.66 1.32 1.32 2 2 C-1.96 4.97 -5.92 7.94 -10 11 C-10.66 10.67 -11.32 10.34 -12 10 C-10.37744772 8.51814875 -8.75188112 7.03959744 -7.125 5.5625 C-6.22007812 4.73878906 -5.31515625 3.91507812 -4.3828125 3.06640625 C-2 1 -2 1 0 0 Z " fill="#1B1B1B" transform="translate(239,115)"/>
<path d="M0 0 C0.99 0.33 1.98 0.66 3 1 C1.23268551 2.3172344 -0.53897761 3.62863588 -2.3125 4.9375 C-3.29863281 5.66839844 -4.28476562 6.39929688 -5.30078125 7.15234375 C-8 9 -8 9 -11 10 C-11 9.01 -11 8.02 -11 7 C-8.84765625 5.4296875 -8.84765625 5.4296875 -6.0625 3.875 C-2.83826582 2.20067795 -2.83826582 2.20067795 0 0 Z " fill="#1D1D1D" transform="translate(484,129)"/>
<path d="M0 0 C0.99 0.33 1.98 0.66 3 1 C1.23268551 2.3172344 -0.53897761 3.62863588 -2.3125 4.9375 C-3.29863281 5.66839844 -4.28476563 6.39929688 -5.30078125 7.15234375 C-8 9 -8 9 -11 10 C-11 9.01 -11 8.02 -11 7 C-8.84765625 5.4296875 -8.84765625 5.4296875 -6.0625 3.875 C-2.83826582 2.20067795 -2.83826582 2.20067795 0 0 Z " fill="#1D1D1D" transform="translate(200,129)"/>
<path d="M0 0 C0.99 0.33 1.98 0.66 3 1 C2.07544441 2.508013 1.1349253 4.00624917 0.1875 5.5 C-0.33457031 6.3353125 -0.85664063 7.170625 -1.39453125 8.03125 C-1.92433594 8.6809375 -2.45414062 9.330625 -3 10 C-3.99 10 -4.98 10 -6 10 C-4.02 6.7 -2.04 3.4 0 0 Z " fill="#1C1C1C" transform="translate(500,110)"/>
<path d="M0 0 C0.33 0 0.66 0 1 0 C1.1953125 1.98567708 1.390625 3.97135417 1.5859375 5.95703125 C2.32454517 9.60129362 3.97643986 10.98429324 7 13 C6.34 13 5.68 13 5 13 C4.67 13.66 4.34 14.32 4 15 C2 13.6875 2 13.6875 0 11 C-0.36089448 7.31144615 -0.22933459 3.6948351 0 0 Z " fill="#343434" transform="translate(395,116)"/>
<path d="M0 0 C0.99 0.33 1.98 0.66 3 1 C2.34 3.97 1.68 6.94 1 10 C0.01 9.34 -0.98 8.68 -2 8 C-1.34 5.36 -0.68 2.72 0 0 Z " fill="#3A3A3A" transform="translate(242,119)"/>
<path d="M0 0 C-2.39509338 2.89932357 -4.31245243 3.50168276 -8 4 C-8.33 3.01 -8.66 2.02 -9 1 C-5.92677456 0.08941469 -3.19902639 -0.08886184 0 0 Z " fill="#1E1E1E" transform="translate(383,91)"/>
<path d="M0 0 C0.33 0 0.66 0 1 0 C0.67 3.3 0.34 6.6 0 10 C-2 7 -2 7 -1.6875 3.875 C-1 1 -1 1 0 0 Z " fill="#222222" transform="translate(241,126)"/>
<path d="M0 0 C0.99 0.33 1.98 0.66 3 1 C2.34 2.98 1.68 4.96 1 7 C0.01 6.67 -0.98 6.34 -2 6 C-1.34 4.02 -0.68 2.04 0 0 Z " fill="#252525" transform="translate(259,83)"/>
</svg>
